<?xml version="1.0" encoding="UTF-8"?>
<svg id="Layer_1" data-name="Layer 1" xmlns="http://www.w3.org/2000/svg" viewBox="0 0 1920 1080">
  <defs>
    <style>
      .cls-1 {
        fill: #e0e0e0;
        isolation: isolate;
        opacity: .72;
      }
    </style>
  </defs>
  <path class="cls-1" d="M544.66,218.41L476.26-55.91c-.71-2.83,1.02-5.13,3.85-5.13h318.55c2.84,0,5.7,2.3,6.41,5.13l68.4,274.32c.71,2.83-1.02,5.13-3.85,5.13h-318.55c-2.84,0-5.7-2.3-6.41-5.13Z"/>
  <path class="cls-1" d="M-173.04,529.02h0c-2.84,0-5.7-2.3-6.41-5.13l-68.4-274.32c-.71-2.83,1.02-5.13,3.85-5.13H74.55c2.84,0,5.7,2.3,6.41,5.13l68.4,274.32c.71,2.83-1.02,5.13-3.85,5.13H-173.04s0,0,0,0Z"/>
  <path class="cls-1" d="M173.44,526.46l-41.26-165.48c-.43-1.71.61-3.09,2.32-3.09h192.16c1.7,0,3.43,1.38,3.86,3.09l41.26,165.48c.43,1.71-.61,3.09-2.32,3.09h-192.16c-1.7,0-3.43-1.38-3.86-3.09Z"/>
  <path class="cls-1" d="M395.41,523.89l-68.4-274.32c-.71-2.83,1.02-5.13,3.85-5.13h318.55c2.84,0,5.7,2.3,6.41,5.13l68.4,274.32c.71,2.83-1.02,5.13-3.85,5.13h-318.55c-2.84,0-5.7-2.3-6.41-5.13Z"/>
  <path class="cls-1" d="M-19.07,223.54h0c-2.84,0-5.7-2.3-6.41-5.13L-93.88-55.91c-.71-2.83,1.02-5.13,3.85-5.13H228.52c2.84,0,5.7,2.3,6.41,5.13l68.4,274.32c.71,2.83-1.02,5.13-3.85,5.13H-19.07s0,0,0,0Z"/>
  <path class="cls-1" d="M303.31,110.1h0c-1.7,0-3.43-1.38-3.85-3.08l-41.13-164.97c-.43-1.7.61-3.08,2.31-3.08h191.57c1.7,0,3.43,1.38,3.85,3.08l41.13,164.97c.43,1.7-.61,3.08-2.31,3.08h-191.57s0,0,0,0Z"/>
  <path class="cls-1" d="M420.79,1024.5l-41.26-165.48c-.43-1.71.61-3.09,2.32-3.09h192.16c1.7,0,3.43,1.38,3.86,3.09l41.26,165.48c.43,1.71-.61,3.09-2.32,3.09h-192.16c-1.7,0-3.43-1.38-3.86-3.09Z"/>
  <path class="cls-1" d="M251.16,835.03h0c-2.84,0-5.7-2.3-6.41-5.13l-68.4-274.32c-.71-2.83,1.02-5.13,3.85-5.13h318.55c2.84,0,5.7,2.3,6.41,5.13l68.4,274.32c.71,2.83-1.02,5.13-3.85,5.13H251.16s0,0,0,0Z"/>
  <path class="cls-1" d="M649.17,1027.06h0c-2.84,0-5.7-2.3-6.41-5.13l-68.4-274.32c-.71-2.83,1.02-5.13,3.85-5.13h318.55c2.84,0,5.7,2.3,6.41,5.13l68.4,274.32c.71,2.83-1.02,5.13-3.85,5.13h-318.55s0,0,0,0Z"/>
  <path class="cls-1" d="M-126.47,1137.94l-41.26-165.48c-.43-1.71.61-3.09,2.32-3.09H26.75c1.7,0,3.43,1.38,3.86,3.09l41.26,165.48c.43,1.71-.61,3.09-2.32,3.09H-122.61c-1.7,0-3.43-1.38-3.86-3.09Z"/>
  <path class="cls-1" d="M101.91,1140.5h0c-2.84,0-5.7-2.3-6.41-5.13L27.1,861.05c-.71-2.83,1.02-5.13,3.85-5.13h318.55c2.84,0,5.7,2.3,6.41,5.13l68.4,274.32c.71,2.83-1.02,5.13-3.85,5.13H101.91s0,0,0,0Z"/>
  <path class="cls-1" d="M573.54,721.59h0c-1.7,0-3.43-1.38-3.85-3.08l-41.13-164.97c-.43-1.7.61-3.08,2.31-3.08h191.57c1.7,0,3.43,1.38,3.85,3.08l41.13,164.97c.43,1.7-.61,3.08-2.31,3.08h-191.57s0,0,0,0Z"/>
  <path class="cls-1" d="M3.4,721.59h0c-1.7,0-3.43-1.38-3.85-3.08l-41.13-164.97c-.43-1.7.61-3.08,2.31-3.08h191.57c1.7,0,3.43,1.38,3.85,3.08l41.13,164.97c.43,1.7-.61,3.08-2.31,3.08H3.4s0,0,0,0Z"/>
</svg>