<?xml version="1.0" encoding="UTF-8"?>
<svg id="Layer_1" data-name="Layer 1" xmlns="http://www.w3.org/2000/svg" viewBox="0 0 1920 1080">
  <defs>
    <style>
      .cls-1 {
        fill: #d3d5da;
        isolation: isolate;
        opacity: .72;
      }
    </style>
  </defs>
  <path class="cls-1" d="M1380.65,223.54h-318.55c-2.83,0-4.56-2.3-3.85-5.13l68.4-274.32c.71-2.83,3.57-5.13,6.41-5.13h318.55c2.83,0,4.56,2.3,3.85,5.13l-68.4,274.32c-.71,2.83-3.57,5.13-6.41,5.13Z"/>
  <path class="cls-1" d="M2104.76,529.02h-318.55c-2.83,0-4.56-2.3-3.85-5.13l68.4-274.32c.71-2.83,3.57-5.13,6.41-5.13h318.55c2.83,0,4.56,2.3,3.85,5.13l-68.4,274.32c-.71,2.83-3.57,5.13-6.41,5.13h0Z"/>
  <path class="cls-1" d="M1754.42,529.55h-192.16c-1.71,0-2.75-1.38-2.32-3.09l41.26-165.48c.43-1.71,2.16-3.09,3.86-3.09h192.16c1.71,0,2.75,1.38,2.32,3.09l-41.26,165.48c-.43,1.71-2.16,3.09-3.86,3.09Z"/>
  <path class="cls-1" d="M1529.9,529.02h-318.55c-2.83,0-4.56-2.3-3.85-5.13l68.4-274.32c.71-2.83,3.57-5.13,6.41-5.13h318.55c2.83,0,4.56,2.3,3.85,5.13l-68.4,274.32c-.71,2.83-3.57,5.13-6.41,5.13Z"/>
  <path class="cls-1" d="M1950.79,223.54h-318.55c-2.83,0-4.56-2.3-3.85-5.13l68.4-274.32c.71-2.83,3.57-5.13,6.41-5.13h318.55c2.83,0,4.56,2.3,3.85,5.13l-68.4,274.32c-.71,2.83-3.57,5.13-6.41,5.13h0Z"/>
  <path class="cls-1" d="M1628.41,110.1h-191.57c-1.7,0-2.74-1.38-2.31-3.08l41.13-164.97c.42-1.7,2.15-3.08,3.85-3.08h191.57c1.7,0,2.74,1.38,2.31,3.08l-41.13,164.97c-.42,1.7-2.15,3.08-3.85,3.08h0Z"/>
  <path class="cls-1" d="M1507.07,1027.59h-192.16c-1.71,0-2.75-1.38-2.32-3.09l41.26-165.48c.43-1.71,2.16-3.09,3.86-3.09h192.16c1.71,0,2.75,1.38,2.32,3.09l-41.26,165.48c-.43,1.71-2.16,3.09-3.86,3.09Z"/>
  <path class="cls-1" d="M1680.56,835.03h-318.55c-2.83,0-4.56-2.3-3.85-5.13l68.4-274.32c.71-2.83,3.57-5.13,6.41-5.13h318.55c2.83,0,4.56,2.3,3.85,5.13l-68.4,274.32c-.71,2.83-3.57,5.13-6.41,5.13h0Z"/>
  <path class="cls-1" d="M1282.55,1027.06h-318.55c-2.83,0-4.56-2.3-3.85-5.13l68.4-274.32c.71-2.83,3.57-5.13,6.41-5.13h318.55c2.83,0,4.56,2.3,3.85,5.13l-68.4,274.32c-.71,2.83-3.57,5.13-6.41,5.13h0Z"/>
  <path class="cls-1" d="M2054.33,1141.03h-192.16c-1.71,0-2.75-1.38-2.32-3.09l41.26-165.48c.43-1.71,2.16-3.09,3.86-3.09h192.16c1.71,0,2.75,1.38,2.32,3.09l-41.26,165.48c-.43,1.71-2.16,3.09-3.86,3.09Z"/>
  <path class="cls-1" d="M1829.81,1140.5h-318.55c-2.83,0-4.56-2.3-3.85-5.13l68.4-274.32c.71-2.83,3.57-5.13,6.41-5.13h318.55c2.83,0,4.56,2.3,3.85,5.13l-68.4,274.32c-.71,2.83-3.57,5.13-6.41,5.13h0Z"/>
  <path class="cls-1" d="M1358.18,721.59h-191.57c-1.7,0-2.74-1.38-2.31-3.08l41.13-164.97c.42-1.7,2.15-3.08,3.85-3.08h191.57c1.7,0,2.74,1.38,2.31,3.08l-41.13,164.97c-.42,1.7-2.15,3.08-3.85,3.08h0Z"/>
  <path class="cls-1" d="M1928.32,721.59h-191.57c-1.7,0-2.74-1.38-2.31-3.08l41.13-164.97c.42-1.7,2.15-3.08,3.85-3.08h191.57c1.7,0,2.74,1.38,2.31,3.08l-41.13,164.97c-.42,1.7-2.15,3.08-3.85,3.08h0Z"/>
</svg>