<?xml version="1.0" encoding="UTF-8"?>
<svg id="Layer_1" data-name="Layer 1" xmlns="http://www.w3.org/2000/svg" viewBox="0 0 64 64">
  <defs>
    <style>
      .cls-1 {
        fill: #fff;
      }

      .cls-2 {
        fill: #000051;
      }
    </style>
  </defs>
  <circle class="cls-1" cx="32" cy="32" r="32"/>
  <g>
    <path class="cls-2" d="M34.56,15.4h12.48c-2.07-1.87-4.5-3.36-7.16-4.35h-7.8c.92,1.39,1.75,2.84,2.48,4.35Z"/>
    <path class="cls-2" d="M38.28,29.51h16c-.33-2.97-1.24-5.77-2.62-8.27h-14.84c.78,2.65,1.28,5.42,1.46,8.27Z"/>
    <path class="cls-2" d="M32.08,52.95h7.8c2.66-.99,5.09-2.48,7.16-4.35h-12.48c-.73,1.51-1.56,2.96-2.48,4.35Z"/>
    <path class="cls-2" d="M36.82,42.76h14.84c1.38-2.5,2.29-5.3,2.62-8.27h-16c-.18,2.85-.68,5.62-1.46,8.27Z"/>
    <path class="cls-2" d="M38.36,32c0-.84-.04-1.67-.09-2.49H9.86c-.09.82-.14,1.65-.14,2.49s.05,1.67.14,2.49h28.41c.05-.82.09-1.65.09-2.49Z"/>
    <path class="cls-2" d="M34.55,15.4h-17.45c-1.85,1.67-3.42,3.64-4.63,5.84h24.33c-.6-2.02-1.35-3.97-2.26-5.84h0Z"/>
    <path class="cls-2" d="M36.81,42.76H12.48c1.21,2.2,2.78,4.17,4.63,5.84h17.45c.91-1.87,1.66-3.82,2.26-5.84h0Z"/>
  </g>
</svg>