<?xml version="1.0" encoding="UTF-8"?>
<svg id="Layer_1" data-name="Layer 1" xmlns="http://www.w3.org/2000/svg" viewBox="0 0 64 64">
  <defs>
    <style>
      .cls-1 {
        fill: none;
        stroke: #000051;
        stroke-linecap: round;
        stroke-linejoin: round;
        stroke-width: 5px;
      }
    </style>
  </defs>
  <path class="cls-1" d="M30.57,55.62c-2.09,0-4.18-1.25-4.78-3.76-.64-2.64-3.3-4.26-5.94-3.62-.49.12-.97.32-1.4.58-4.4,2.68-9.44-2.36-6.76-6.76,1.41-2.32.68-5.34-1.64-6.76-.43-.26-.9-.46-1.4-.58-5.01-1.21-5.01-8.34,0-9.55,2.64-.64,4.26-3.3,3.62-5.94-.12-.49-.32-.97-.58-1.4-2.68-4.4,2.36-9.44,6.76-6.76,2.85,1.73,6.55.2,7.33-3.04,1.21-5.01,8.34-5.01,9.55,0,.64,2.64,3.3,4.26,5.94,3.62.49-.12.97-.32,1.4-.58,4.4-2.68,9.44,2.36,6.76,6.76-1.41,2.32-.68,5.34,1.64,6.76.43.26.9.46,1.4.58,2.53.61,3.78,2.73,3.76,4.83"/>
  <path class="cls-1" d="M22.01,29.95c0,4.72,3.83,8.55,8.55,8.55s8.55-3.83,8.55-8.55-3.83-8.55-8.55-8.55-8.55,3.83-8.55,8.55"/>
  <path class="cls-1" d="M44.83,49.91c0,3.15,2.55,5.7,5.7,5.7s5.7-2.55,5.7-5.7-2.55-5.7-5.7-5.7-5.7,2.55-5.7,5.7"/>
  <path class="cls-1" d="M50.53,39.93v4.28"/>
  <path class="cls-1" d="M50.53,55.62v4.28"/>
  <path class="cls-1" d="M59.17,44.92l-3.7,2.14"/>
  <path class="cls-1" d="M45.59,52.76l-3.71,2.14"/>
  <path class="cls-1" d="M41.89,44.92l3.71,2.14"/>
  <path class="cls-1" d="M55.47,52.76l3.71,2.14"/>
</svg>