<?xml version="1.0" encoding="UTF-8"?>
<svg id="Layer_1" data-name="Layer 1" xmlns="http://www.w3.org/2000/svg" viewBox="0 0 64 64">
  <defs>
    <style>
      .cls-1 {
        fill: none;
        stroke: #000051;
        stroke-linecap: round;
        stroke-linejoin: round;
        stroke-width: 5px;
      }
    </style>
  </defs>
  <path class="cls-1" d="M32,4.07c7.25,6.41,16.71,9.75,26.38,9.31,5.8,19.73-5.49,40.43-25.22,46.23-.38.11-.77.22-1.15.32C12.09,54.76.14,34.44,5.3,14.53c.1-.39.21-.77.32-1.15,9.67.44,19.13-2.9,26.38-9.31"/>
  <path class="cls-1" d="M28.9,28.9c0,1.71,1.39,3.1,3.1,3.1s3.1-1.39,3.1-3.1-1.39-3.1-3.1-3.1-3.1,1.39-3.1,3.1"/>
  <path class="cls-1" d="M32,32v7.76"/>
</svg>