<?xml version="1.0" encoding="UTF-8"?>
<svg id="Layer_1" data-name="Layer 1" xmlns="http://www.w3.org/2000/svg" viewBox="0 0 64 64">
  <defs>
    <style>
      .cls-1 {
        fill: none;
        stroke: #000051;
        stroke-linecap: round;
        stroke-linejoin: round;
        stroke-width: 5px;
      }
    </style>
  </defs>
  <path class="cls-1" d="M20.94,60.33h22.12c6.95,0,12.59-5.64,12.59-12.59,0-1.31-.2-2.61-.6-3.85l-5.37-16.7c-2.09-6.51-8.15-10.92-14.98-10.92h-5.38c-6.84,0-12.89,4.41-14.98,10.92l-5.37,16.7c-2.13,6.62,1.51,13.71,8.13,15.84,1.25.4,2.54.6,3.85.6"/>
  <path class="cls-1" d="M41.44,3.67c-2.1,8.39-5.25,12.59-9.44,12.59s-7.34-4.2-9.44-12.59h18.89Z"/>
  <path class="cls-1" d="M38.3,28.85h-3.15c-3.48,0-6.3,2.82-6.3,6.3v6.3c0,3.48-1.24,6.3-4.72,6.3h14.16"/>
  <path class="cls-1" d="M25.71,38.3h9.44"/>
</svg>