<?xml version="1.0" encoding="UTF-8"?>
<svg id="Layer_1" data-name="Layer 1" xmlns="http://www.w3.org/2000/svg" viewBox="0 0 400 75">
  <defs>
    <style>
      .cls-1 {
        fill: #000051;
      }
    </style>
  </defs>
  <path class="cls-1" d="M66.52,7.97c-3.69-3.33-8.01-5.98-12.76-7.75h-13.9c1.64,2.48,3.12,5.06,4.43,7.75h22.24Z"/>
  <path class="cls-1" d="M48.3,18.37c1.39,4.72,2.28,9.65,2.61,14.74h28.52c-.59-5.3-2.21-10.28-4.67-14.74h-26.46Z"/>
  <path class="cls-1" d="M39.85,74.89h13.9c4.75-1.77,9.07-4.42,12.76-7.75h-22.24c-1.31,2.69-2.79,5.28-4.43,7.75Z"/>
  <path class="cls-1" d="M50.91,41.99c-.33,5.09-1.22,10.02-2.61,14.74h26.46c2.46-4.46,4.08-9.45,4.67-14.74h-28.52Z"/>
  <path class="cls-1" d="M51.06,37.55c0-1.49-.06-2.97-.16-4.44H.25c-.16,1.46-.25,2.94-.25,4.44s.09,2.98.25,4.44h50.65c.1-1.47.16-2.95.16-4.44Z"/>
  <path class="cls-1" d="M44.27,7.97H13.16c-3.3,2.97-6.09,6.49-8.25,10.41h43.37c-1.06-3.6-2.41-7.08-4.02-10.41Z"/>
  <path class="cls-1" d="M48.29,56.73H4.92c2.16,3.92,4.95,7.43,8.25,10.41h31.1c1.62-3.32,2.96-6.8,4.02-10.41Z"/>
  <path class="cls-1" d="M124.86,38.15c-.98-.87-2.13-1.6-3.47-2.2-1.34-.6-2.8-1.07-4.4-1.43l-3.29-.79c-.8-.18-1.55-.4-2.25-.65-.7-.26-1.32-.56-1.86-.91-.54-.35-.96-.77-1.26-1.26-.3-.49-.44-1.06-.42-1.72,0-.79.23-1.49.69-2.11.46-.62,1.12-1.11,1.99-1.46.87-.35,1.94-.53,3.2-.53,1.86,0,3.33.4,4.42,1.2,1.08.8,1.7,1.92,1.84,3.36h7.42c-.04-2.18-.62-4.1-1.75-5.76s-2.72-2.95-4.75-3.88c-2.03-.93-4.41-1.39-7.13-1.39s-5.06.46-7.15,1.39c-2.1.93-3.75,2.22-4.95,3.88-1.2,1.66-1.79,3.6-1.78,5.81-.01,2.71.88,4.86,2.66,6.46,1.79,1.6,4.23,2.77,7.32,3.52l3.99,1c1.34.32,2.47.68,3.39,1.07.92.39,1.63.87,2.11,1.43.48.56.72,1.25.72,2.07,0,.88-.27,1.66-.81,2.34-.54.68-1.29,1.21-2.26,1.59-.97.38-2.11.57-3.43.57s-2.53-.21-3.59-.62c-1.06-.41-1.9-1.03-2.52-1.84-.63-.82-.98-1.84-1.06-3.07h-7.49c.06,2.64.7,4.84,1.92,6.63,1.22,1.78,2.93,3.13,5.12,4.03,2.19.91,4.76,1.36,7.72,1.36s5.53-.45,7.65-1.35c2.12-.9,3.74-2.17,4.87-3.81s1.7-3.58,1.71-5.82c-.01-1.53-.29-2.88-.83-4.06-.54-1.18-1.3-2.21-2.28-3.08Z"/>
  <path class="cls-1" d="M162.26,27.92c-2.02,0-3.76.47-5.23,1.42-1.47.95-2.49,2.21-3.05,3.78h-.29c-.44-1.6-1.32-2.87-2.65-3.8-1.32-.94-2.93-1.4-4.81-1.4s-3.46.46-4.79,1.39c-1.34.93-2.29,2.2-2.86,3.81h-.32v-4.85h-7.26v27.47h7.62v-16.49c0-1.01.2-1.9.59-2.66.39-.76.93-1.35,1.6-1.77.67-.42,1.43-.64,2.28-.64,1.25,0,2.26.4,3.03,1.2.77.8,1.15,1.87,1.15,3.22v17.14h7.39v-16.78c0-1.43.39-2.58,1.16-3.46.78-.88,1.85-1.31,3.24-1.31,1.22,0,2.23.38,3.04,1.14.81.76,1.22,1.91,1.22,3.43v16.97h7.6v-18.48c0-2.98-.8-5.29-2.41-6.91s-3.69-2.44-6.25-2.44Z"/>
  <path class="cls-1" d="M194.69,30.12c-1.09-.75-2.34-1.31-3.74-1.66-1.4-.36-2.86-.54-4.39-.54-2.19,0-4.12.33-5.79.99-1.66.66-3.02,1.6-4.07,2.83-1.05,1.22-1.75,2.67-2.11,4.34l7.05.57c.26-.91.8-1.66,1.61-2.26.81-.6,1.9-.9,3.27-.9,1.3,0,2.3.31,3.01.93.71.62,1.06,1.5,1.06,2.63v.11c0,.58-.22,1.03-.66,1.32-.44.3-1.15.52-2.13.67-.98.15-2.27.31-3.86.47-1.36.13-2.66.36-3.89.68-1.23.32-2.33.8-3.3,1.43-.97.63-1.73,1.47-2.29,2.5-.56,1.04-.84,2.32-.84,3.85,0,1.81.4,3.32,1.19,4.53.79,1.21,1.88,2.12,3.25,2.74,1.37.61,2.93.92,4.69.92h0c1.36,0,2.56-.18,3.6-.55,1.04-.36,1.93-.87,2.67-1.52.74-.65,1.33-1.4,1.77-2.26h.21v3.81h7.23v-18.53c0-1.63-.32-3.04-.95-4.21-.63-1.17-1.49-2.14-2.58-2.89ZM190.66,45.93c0,.97-.24,1.83-.73,2.59-.49.76-1.16,1.37-2.02,1.82s-1.85.67-2.97.67-2.13-.27-2.89-.81c-.76-.54-1.14-1.33-1.14-2.37,0-.72.18-1.31.55-1.8.37-.48.89-.87,1.56-1.15s1.45-.49,2.34-.63c.42-.06.88-.13,1.4-.21s1.03-.17,1.54-.27c.51-.1.97-.21,1.39-.34.41-.13.74-.27.98-.42v2.92Z"/>
  <path class="cls-1" d="M216.4,27.88c-1.54,0-2.9.44-4.08,1.31-1.18.88-2.02,2.17-2.52,3.87h-.29v-4.79h-7.39v27.47h7.62v-15.54c0-1.12.25-2.11.76-2.97.51-.86,1.2-1.53,2.08-2.01.88-.48,1.88-.72,3-.72.52,0,1.1.04,1.74.13.63.08,1.13.18,1.48.29v-6.76c-.33-.08-.72-.15-1.16-.2-.44-.05-.85-.07-1.23-.07Z"/>
  <path class="cls-1" d="M235.17,49.89c-.36.07-.72.1-1.07.1-.51,0-.96-.08-1.35-.23-.39-.15-.69-.43-.9-.81-.21-.39-.32-.93-.32-1.64v-13.31h5.17v-5.72h-5.17v-6.58h-7.62v6.58h-3.76v5.72h3.76v14.31c-.01,1.8.36,3.29,1.13,4.47.76,1.18,1.83,2.05,3.21,2.61,1.38.56,2.98.8,4.82.73.99-.04,1.83-.13,2.52-.3.69-.16,1.23-.3,1.61-.42l-1.2-5.67c-.19.04-.46.09-.82.15Z"/>
  <path class="cls-1" d="M260.75,31.39c-1.17-1.16-2.55-2.02-4.11-2.6-1.57-.58-3.26-.87-5.07-.87-2.69,0-5.04.6-7.04,1.79-2,1.19-3.54,2.86-4.64,4.99-1.1,2.13-1.65,4.61-1.65,7.44s.55,5.4,1.65,7.52c1.1,2.12,2.66,3.75,4.7,4.9,2.03,1.15,4.46,1.73,7.29,1.73,2.27,0,4.27-.35,6-1.05,1.74-.7,3.15-1.68,4.26-2.93,1.1-1.26,1.83-2.73,2.19-4.43l-7.05-.47c-.26.69-.64,1.28-1.14,1.75-.5.48-1.1.83-1.81,1.07-.7.24-1.48.36-2.33.36-1.28,0-2.38-.27-3.31-.81-.93-.54-1.65-1.3-2.16-2.29-.51-.99-.76-2.16-.76-3.52v-.02h18.71v-2.09c0-2.34-.33-4.38-.98-6.13-.66-1.75-1.57-3.2-2.75-4.36ZM245.78,39.24c.05-.99.3-1.89.76-2.71.5-.89,1.2-1.6,2.08-2.13.89-.53,1.91-.8,3.07-.8s2.08.24,2.92.72c.84.48,1.5,1.15,1.98,1.99.48.85.72,1.82.72,2.92h-11.53Z"/>
  <path class="cls-1" d="M281.71,27.88c-1.54,0-2.9.44-4.08,1.31-1.18.88-2.02,2.17-2.52,3.87h-.29v-4.79h-7.39v27.47h7.62v-15.54c0-1.12.25-2.11.76-2.97.51-.86,1.2-1.53,2.07-2.01.88-.48,1.88-.72,3-.72.52,0,1.1.04,1.74.13.63.08,1.13.18,1.48.29v-6.76c-.33-.08-.72-.15-1.16-.2-.44-.05-.85-.07-1.23-.07Z"/>
  <polygon class="cls-1" points="301.96 46.95 301.62 46.95 292.77 19.12 284.16 19.12 296.81 55.75 306.79 55.75 319.42 19.12 310.83 19.12 301.96 46.95"/>
  <rect class="cls-1" x="321.66" y="28.28" width="7.62" height="27.47"/>
  <path class="cls-1" d="M325.49,17.03c-1.13,0-2.1.38-2.91,1.14-.8.76-1.21,1.66-1.21,2.71s.4,1.97,1.21,2.73c.81.76,1.77,1.14,2.91,1.14s2.1-.38,2.91-1.14c.81-.76,1.21-1.67,1.21-2.73s-.4-1.95-1.21-2.71c-.8-.76-1.77-1.14-2.91-1.14Z"/>
  <path class="cls-1" d="M354.75,31.39c-1.17-1.16-2.55-2.02-4.11-2.6-1.57-.58-3.26-.87-5.07-.87-2.7,0-5.04.6-7.04,1.79-2,1.19-3.54,2.86-4.64,4.99-1.1,2.13-1.65,4.61-1.65,7.44s.55,5.4,1.65,7.52c1.1,2.12,2.66,3.75,4.7,4.9,2.03,1.15,4.46,1.73,7.29,1.73,2.27,0,4.27-.35,6-1.05,1.74-.7,3.15-1.68,4.26-2.93,1.1-1.26,1.83-2.73,2.19-4.43l-7.05-.47c-.26.69-.64,1.28-1.14,1.75-.5.48-1.1.83-1.81,1.07-.7.24-1.48.36-2.33.36-1.28,0-2.38-.27-3.31-.81-.93-.54-1.65-1.3-2.16-2.29-.51-.99-.76-2.16-.76-3.52v-.02h18.71v-2.09c0-2.34-.33-4.38-.98-6.13-.66-1.75-1.57-3.2-2.75-4.36ZM339.78,39.24c.05-.99.3-1.89.76-2.71.5-.89,1.2-1.6,2.08-2.13.89-.53,1.91-.8,3.07-.8s2.08.24,2.92.72c.84.48,1.5,1.15,1.98,1.99.48.85.72,1.82.72,2.92h-11.53Z"/>
  <polygon class="cls-1" points="392.31 28.28 388.12 46.63 387.89 46.63 383.38 28.28 375.82 28.28 371.38 46.73 371.13 46.73 366.87 28.28 359.16 28.28 366.64 55.75 366.64 55.75 374.69 55.75 379.41 38.47 379.75 38.47 384.47 55.75 392.54 55.75 400 28.28 392.31 28.28"/>
</svg>