<?xml version="1.0" encoding="UTF-8"?>
<svg id="Layer_1" data-name="Layer 1" xmlns="http://www.w3.org/2000/svg" viewBox="0 0 200 47.23">
  <defs>
    <style>
      .cls-1 {
        fill: #000051;
      }
    </style>
  </defs>
  <g>
    <path class="cls-1" d="M27.85,5.02h13.99c-2.32-2.1-5.04-3.77-8.03-4.89h-8.75c1.03,1.56,1.96,3.19,2.78,4.89Z"/>
    <path class="cls-1" d="M32.03,20.88h17.94c-.37-3.34-1.39-6.48-2.93-9.3h-16.65c.87,2.98,1.43,6.09,1.64,9.3Z"/>
    <path class="cls-1" d="M25.07,47.23h8.75c2.99-1.12,5.71-2.79,8.03-4.89h-13.99c-.82,1.7-1.75,3.33-2.78,4.89Z"/>
    <path class="cls-1" d="M30.39,35.78h16.65c1.54-2.81,2.57-5.96,2.93-9.3h-17.94c-.21,3.21-.77,6.32-1.64,9.3Z"/>
    <path class="cls-1" d="M32.12,23.68c0-.94-.04-1.87-.1-2.8H.16c-.1.92-.16,1.85-.16,2.8s.06,1.88.16,2.8h31.86c.06-.93.1-1.86.1-2.8Z"/>
    <path class="cls-1" d="M27.85,5.02H8.28c-2.07,1.88-3.83,4.09-5.19,6.56h27.29c-.67-2.27-1.51-4.47-2.53-6.56Z"/>
    <path class="cls-1" d="M30.38,35.78H3.09c1.36,2.47,3.11,4.69,5.19,6.56h19.57c1.02-2.1,1.86-4.29,2.53-6.56Z"/>
  </g>
  <g>
    <g>
      <path class="cls-1" d="M72.51,14.17c-.22-.46-.51-.85-.87-1.18-.36-.32-.76-.59-1.22-.8-.45-.21-.92-.4-1.4-.55-.48-.16-.94-.3-1.4-.43-.45-.13-.86-.28-1.22-.45-.36-.17-.65-.37-.87-.6-.22-.23-.33-.52-.33-.87,0-.55.2-.99.6-1.33.4-.34,1-.51,1.8-.51.45,0,.85.06,1.19.17.34.11.64.24.9.37.26.13.49.25.69.37.2.11.38.17.55.17s.32-.04.43-.11c.11-.08.22-.2.33-.37l.85-1.54c-.59-.52-1.32-.93-2.18-1.23-.86-.3-1.79-.44-2.8-.44-.9,0-1.7.13-2.4.39s-1.28.61-1.76,1.04c-.48.43-.84.92-1.09,1.48-.25.55-.37,1.13-.37,1.72,0,.74.11,1.35.33,1.85.22.5.51.91.86,1.25.35.34.76.6,1.21.81.45.2.92.38,1.4.52.48.15.94.28,1.4.4.45.12.86.26,1.21.43.35.17.64.38.86.62.22.25.33.57.33.97,0,.69-.22,1.21-.66,1.56s-1.07.52-1.88.52c-.55,0-1.03-.07-1.43-.22-.4-.15-.75-.31-1.05-.48-.3-.17-.57-.33-.8-.48-.23-.15-.45-.22-.66-.22-.15,0-.3.04-.44.11-.14.08-.25.17-.34.29l-1.02,1.55c.32.31.7.6,1.13.85.43.26.89.47,1.38.66s1,.32,1.53.43c.53.1,1.06.15,1.59.15.93,0,1.77-.13,2.5-.4.74-.27,1.35-.64,1.85-1.11s.88-1.02,1.15-1.65c.27-.63.4-1.31.4-2.03,0-.66-.11-1.23-.33-1.69Z"/>
      <path class="cls-1" d="M78.57,12.67c.29-.29.59-.52.92-.68.33-.16.68-.25,1.05-.25.58,0,1.01.15,1.31.45.3.3.45.81.45,1.52v7.16h3.19v-7.16c0-.32.05-.6.14-.85.1-.25.23-.46.4-.62.17-.17.37-.29.6-.38.23-.08.48-.13.75-.13,1.19,0,1.79.66,1.79,1.98v7.16h3.19v-7.16c0-.68-.09-1.28-.28-1.81-.18-.53-.45-.98-.8-1.35-.35-.37-.78-.65-1.3-.84-.52-.19-1.11-.28-1.78-.28-.38,0-.75.04-1.13.11-.37.08-.73.19-1.06.36-.34.16-.64.37-.92.63-.28.26-.52.57-.71.92-.25-.61-.61-1.1-1.09-1.47-.48-.37-1.08-.55-1.81-.55-.35,0-.67.04-.97.11-.3.07-.57.17-.83.3-.25.13-.49.28-.71.45-.22.17-.43.36-.64.57l-.18-.73c-.13-.35-.4-.52-.8-.52h-1.96v11.27h3.19v-8.21Z"/>
      <path class="cls-1" d="M100.11,20.67c.3-.13.6-.28.88-.47.28-.19.57-.4.87-.65l.25.71c.1.26.23.42.39.5.16.08.39.12.69.12h1.46v-7.08c0-.64-.1-1.23-.31-1.77-.21-.54-.51-1-.9-1.39-.39-.39-.86-.69-1.42-.91-.56-.22-1.19-.33-1.9-.33-.99,0-1.9.15-2.75.44-.85.3-1.62.74-2.32,1.34l.57.96c.1.15.23.27.38.38.15.11.34.16.56.16.25,0,.48-.05.67-.15.19-.1.4-.2.62-.32.22-.11.48-.22.77-.32.29-.1.66-.15,1.1-.15.59,0,1.05.17,1.36.5.32.33.47.85.47,1.56v.58c-1.36.03-2.5.16-3.4.38-.91.23-1.63.51-2.17.85-.54.34-.93.71-1.15,1.13-.22.41-.34.83-.34,1.24,0,.5.08.95.25,1.33.17.39.41.71.72.97.31.26.68.45,1.12.58.43.13.91.2,1.43.2.42,0,.8-.03,1.14-.1.34-.07.67-.16.97-.29ZM97.92,18.75c-.26-.18-.39-.49-.39-.93,0-.22.06-.42.19-.61.13-.19.34-.35.65-.49s.71-.26,1.23-.36c.52-.09,1.16-.16,1.94-.19v1.75c-.39.37-.77.65-1.17.83-.39.18-.85.27-1.38.27-.46,0-.82-.09-1.08-.27Z"/>
      <path class="cls-1" d="M113.07,12.27c.2,0,.42.02.65.05.23.03.41.05.53.05.14,0,.25-.03.33-.08.08-.05.14-.15.18-.3l.21-2.23c-.34-.24-.78-.36-1.32-.36-.66,0-1.24.19-1.74.56-.5.37-.93.88-1.31,1.52l-.16-1.13c-.05-.27-.14-.46-.27-.57-.12-.11-.35-.16-.67-.16h-1.88v11.27h3.19v-6.9c.24-.54.53-.96.87-1.26.34-.3.81-.45,1.39-.45Z"/>
      <path class="cls-1" d="M123.48,18.41c-.06-.04-.14-.06-.23-.06-.07,0-.14.02-.2.05-.07.03-.14.07-.21.11-.08.04-.17.08-.28.11-.11.03-.24.05-.39.05-.29,0-.52-.09-.68-.27-.16-.18-.24-.43-.24-.74v-5.88h3.07v-2.1h-3.07v-3.43h-1.66c-.39,0-.62.16-.7.49l-.65,2.92-1.91.33v1.18c0,.2.06.36.18.46.12.1.26.15.43.15h1.12v6.08c0,.5.07.94.22,1.33.15.39.36.73.65,1.01.28.28.64.49,1.05.64.42.15.89.22,1.43.22.59,0,1.17-.08,1.72-.25.55-.17,1.05-.42,1.49-.74l-.96-1.44c-.06-.09-.12-.16-.18-.2Z"/>
      <path class="cls-1" d="M132.85,20.96c.45-.05.89-.15,1.33-.3.44-.14.86-.34,1.27-.58.41-.24.78-.55,1.12-.92l-.92-1.09c-.14-.17-.33-.26-.58-.26-.19,0-.39.05-.58.15s-.42.21-.66.33c-.24.12-.52.23-.84.33s-.7.15-1.14.15c-.87,0-1.57-.24-2.11-.73-.54-.49-.85-1.26-.95-2.32h7.15c.15,0,.27-.02.36-.05.09-.03.17-.09.22-.18.05-.09.09-.2.12-.35.02-.15.03-.33.03-.56,0-.82-.13-1.54-.39-2.18-.26-.64-.62-1.18-1.09-1.61-.47-.44-1.02-.77-1.66-1-.64-.23-1.35-.34-2.11-.34-.9,0-1.71.15-2.43.44-.72.3-1.33.69-1.83,1.2-.5.5-.88,1.09-1.15,1.77-.27.68-.4,1.4-.4,2.16,0,.99.15,1.86.46,2.61.31.75.73,1.38,1.27,1.89.54.51,1.16.89,1.88,1.15.72.26,1.5.39,2.33.39.42,0,.85-.03,1.29-.08ZM129.68,12.17c.43-.41,1.03-.62,1.79-.62.41,0,.76.06,1.05.19.29.13.54.3.73.52.19.22.33.47.42.75.09.28.13.58.13.9h-4.97c.13-.75.41-1.33.84-1.74Z"/>
      <path class="cls-1" d="M145.77,12.36c.14,0,.25-.03.33-.08.08-.05.14-.15.18-.3l.21-2.23c-.34-.24-.78-.36-1.32-.36-.66,0-1.24.19-1.74.56-.5.37-.93.88-1.31,1.52l-.16-1.13c-.05-.27-.14-.46-.27-.57-.12-.11-.35-.16-.67-.16h-1.88v11.27h3.19v-6.9c.24-.54.53-.96.87-1.26.34-.3.81-.45,1.39-.45.2,0,.42.02.65.05.23.03.41.05.53.05Z"/>
    </g>
    <g>
      <path class="cls-1" d="M108.6,32.08c-.34-.38-.77-.67-1.27-.89-.5-.21-1.08-.32-1.72-.32-.73,0-1.37.12-1.9.36-.53.24-1.02.55-1.47.94v-6.15h-3.19v16.32h3.19v-8.11c.35-.32.73-.57,1.12-.76.39-.19.81-.28,1.27-.28.6,0,1.06.17,1.37.52.31.35.46.83.46,1.46v7.17h3.18v-7.17c0-.63-.09-1.2-.26-1.73-.17-.53-.43-.98-.78-1.36Z"/>
      <rect class="cls-1" x="139.99" y="26.02" width="3.19" height="16.32"/>
      <path class="cls-1" d="M175.59,26.55c-.18-.17-.39-.3-.64-.39-.24-.09-.5-.14-.78-.14-.26,0-.51.05-.75.14-.24.09-.44.23-.62.39-.18.17-.32.36-.42.59-.1.22-.16.46-.16.72s.05.49.16.71c.1.22.25.41.42.58.18.17.38.3.62.39.24.09.48.14.75.14.28,0,.54-.05.78-.14.24-.09.46-.23.64-.39.18-.17.33-.36.43-.58.11-.22.16-.46.16-.71s-.05-.49-.16-.72c-.11-.22-.25-.42-.43-.59Z"/>
      <rect class="cls-1" x="172.62" y="31.05" width="3.19" height="11.28"/>
      <polygon class="cls-1" points="74.6 26.46 61.31 26.46 61.31 29.11 66.21 29.11 66.21 42.34 69.7 42.34 69.7 29.11 74.6 29.11 74.6 26.46"/>
      <path class="cls-1" d="M83.62,32.23c-.47-.44-1.02-.77-1.67-1-.64-.23-1.35-.34-2.11-.34-.9,0-1.71.15-2.43.44-.72.3-1.33.69-1.83,1.2-.5.5-.88,1.09-1.15,1.77-.27.68-.4,1.4-.4,2.17,0,.99.15,1.86.46,2.62.31.75.73,1.38,1.27,1.89.54.51,1.16.89,1.89,1.15.72.26,1.5.39,2.33.39.42,0,.85-.03,1.3-.08.45-.05.89-.15,1.33-.3.44-.14.86-.34,1.27-.58.41-.24.78-.55,1.12-.92l-.93-1.09c-.14-.18-.33-.26-.58-.26-.19,0-.39.05-.58.15-.2.1-.42.21-.66.33s-.52.23-.84.33c-.32.1-.7.15-1.14.15-.87,0-1.58-.24-2.11-.73-.54-.49-.86-1.26-.95-2.32h7.16c.15,0,.27-.02.36-.05.09-.03.17-.09.22-.18.05-.09.09-.2.12-.35.02-.15.03-.33.03-.56,0-.82-.13-1.54-.39-2.18-.26-.64-.62-1.18-1.09-1.61ZM77.26,35.37c.13-.75.41-1.33.84-1.75.43-.41,1.03-.62,1.79-.62.41,0,.76.06,1.05.19.29.13.54.3.73.52.19.22.33.47.42.76.09.28.13.58.13.9h-4.98Z"/>
      <path class="cls-1" d="M95.63,39.26c-.13,0-.25.02-.35.07-.1.05-.21.11-.31.18-.1.07-.21.15-.33.24-.12.09-.25.17-.41.24-.16.07-.34.13-.56.18-.21.05-.47.07-.76.07-.85,0-1.52-.31-2.01-.92-.49-.61-.73-1.5-.73-2.65,0-.55.06-1.04.17-1.48.11-.44.28-.81.52-1.12.23-.31.52-.54.87-.71.35-.16.77-.25,1.24-.25.38,0,.69.04.95.13.25.08.47.18.66.27.19.1.35.19.49.27.14.08.29.13.45.13.17,0,.3-.03.39-.09.09-.06.19-.15.28-.27l.83-1.07c-.55-.53-1.16-.93-1.85-1.2-.69-.28-1.49-.42-2.4-.42-.96,0-1.8.15-2.53.44-.73.3-1.34.7-1.83,1.22-.49.52-.87,1.13-1.12,1.84-.25.71-.38,1.47-.38,2.3,0,.93.14,1.75.43,2.47.29.72.68,1.33,1.17,1.83.49.5,1.07.87,1.72,1.13.66.26,1.35.39,2.08.39.42,0,.84-.03,1.26-.08.42-.05.84-.15,1.26-.3.41-.14.81-.34,1.2-.58.39-.24.75-.55,1.09-.92l-.91-1.09c-.14-.18-.33-.26-.58-.26Z"/>
      <path class="cls-1" d="M122.17,32.08c-.34-.38-.77-.67-1.27-.89-.5-.21-1.08-.32-1.72-.32-.39,0-.76.04-1.09.11-.34.07-.65.18-.94.31-.29.13-.56.29-.82.47-.26.18-.51.38-.75.6l-.2-.79c-.13-.35-.4-.53-.8-.53h-1.97v11.28h3.19v-8.11c.35-.32.73-.57,1.12-.76.39-.19.81-.28,1.27-.28.6,0,1.06.17,1.37.52.31.35.46.83.46,1.46v7.17h3.18v-7.17c0-.63-.09-1.2-.26-1.73-.17-.53-.43-.98-.78-1.36Z"/>
      <path class="cls-1" d="M135.86,32.44c-.52-.5-1.15-.88-1.89-1.15-.73-.27-1.55-.4-2.44-.4s-1.72.14-2.46.4c-.74.27-1.37.66-1.89,1.15s-.93,1.11-1.22,1.82c-.29.72-.43,1.52-.43,2.42s.14,1.71.43,2.42c.29.72.7,1.33,1.22,1.83s1.16.89,1.89,1.16c.74.27,1.56.4,2.46.4s1.71-.14,2.44-.4c.73-.27,1.36-.66,1.89-1.16.52-.5.93-1.11,1.22-1.83.29-.72.43-1.53.43-2.42s-.14-1.7-.43-2.42c-.29-.72-.69-1.32-1.22-1.82ZM133.56,39.35c-.44.59-1.11.89-2.03.89s-1.62-.3-2.06-.89-.66-1.48-.66-2.65.22-2.05.66-2.64c.44-.59,1.13-.89,2.06-.89s1.59.3,2.03.89c.44.59.66,1.48.66,2.64s-.22,2.06-.66,2.65Z"/>
      <path class="cls-1" d="M156.01,32.44c-.52-.5-1.15-.88-1.89-1.15-.73-.27-1.55-.4-2.44-.4s-1.72.14-2.46.4c-.74.27-1.37.66-1.89,1.15-.52.5-.93,1.11-1.22,1.82s-.43,1.52-.43,2.42.14,1.71.43,2.42c.29.72.7,1.33,1.22,1.83.52.5,1.16.89,1.89,1.16.74.27,1.56.4,2.46.4s1.71-.14,2.44-.4c.73-.27,1.36-.66,1.89-1.16.52-.5.93-1.11,1.22-1.83.29-.72.43-1.53.43-2.42s-.14-1.7-.43-2.42c-.29-.72-.69-1.32-1.22-1.82ZM153.71,39.35c-.44.59-1.11.89-2.03.89s-1.62-.3-2.06-.89c-.44-.59-.66-1.48-.66-2.65s.22-2.05.66-2.64c.44-.59,1.13-.89,2.06-.89s1.59.3,2.03.89c.44.59.66,1.48.66,2.64s-.22,2.06-.66,2.65Z"/>
      <path class="cls-1" d="M165.84,31.01c-.45-.1-.93-.15-1.44-.15-.69,0-1.32.08-1.91.25-.59.17-1.1.41-1.53.73-.43.32-.77.7-1.01,1.15s-.36.96-.36,1.52c0,.69.18,1.29.53,1.8.35.51.83.93,1.44,1.24-.53.25-.93.56-1.19.92-.26.37-.39.72-.39,1.06,0,.42.09.75.27,1.01.18.26.42.47.72.63-.56.21-1.01.49-1.33.84-.32.35-.49.78-.49,1.28,0,.39.11.76.32,1.12.22.36.55.67.99.95.44.27,1,.49,1.68.66.68.16,1.47.25,2.39.25s1.75-.11,2.48-.34c.73-.23,1.34-.53,1.83-.9.5-.37.88-.8,1.14-1.27.26-.47.39-.96.39-1.47,0-.54-.11-.98-.33-1.32-.22-.34-.51-.62-.87-.83-.36-.21-.77-.36-1.23-.45-.46-.09-.93-.15-1.4-.19-.47-.04-.94-.06-1.4-.07-.46-.01-.87-.04-1.23-.08-.36-.04-.65-.11-.87-.2-.22-.09-.33-.25-.33-.46,0-.23.16-.43.47-.61.19.03.39.05.59.07.2.01.41.02.61.02.67,0,1.3-.09,1.87-.26.58-.17,1.08-.42,1.5-.73.42-.32.76-.7,1-1.15.24-.45.36-.95.36-1.52,0-.41-.07-.79-.2-1.15l.97-.19c.24-.05.41-.13.51-.23s.16-.24.16-.42v-1.11h-3.51c-.38-.18-.79-.32-1.24-.42ZM162.83,41.66c.35.04.7.06,1.07.08.37.01.72.03,1.06.05.34.02.66.04.96.08.3.03.56.09.78.16.22.07.4.17.53.3.13.12.2.28.2.48s-.05.38-.14.55c-.1.17-.26.31-.48.43-.22.12-.52.21-.88.28-.36.07-.81.1-1.33.1s-.93-.03-1.27-.09c-.34-.06-.61-.15-.82-.26-.21-.11-.36-.24-.45-.39-.09-.15-.13-.32-.13-.5,0-.26.08-.5.25-.71.17-.21.39-.39.66-.54ZM165.85,35.8c-.31.31-.8.47-1.45.47s-1.13-.16-1.44-.48c-.31-.32-.47-.72-.47-1.21,0-.52.15-.92.46-1.22.31-.3.79-.44,1.45-.44s1.14.15,1.45.44c.31.3.47.7.47,1.22s-.16.9-.47,1.21Z"/>
      <path class="cls-1" d="M187.82,32.23c-.47-.44-1.02-.77-1.67-1-.64-.23-1.35-.34-2.11-.34-.9,0-1.71.15-2.43.44-.72.3-1.33.69-1.83,1.2-.5.5-.88,1.09-1.15,1.77-.27.68-.4,1.4-.4,2.17,0,.99.15,1.86.46,2.62.31.75.73,1.38,1.27,1.89.54.51,1.16.89,1.89,1.15.72.26,1.5.39,2.33.39.42,0,.85-.03,1.3-.08.45-.05.89-.15,1.33-.3.44-.14.86-.34,1.27-.58.41-.24.78-.55,1.12-.92l-.93-1.09c-.14-.18-.33-.26-.58-.26-.19,0-.39.05-.58.15-.2.1-.42.21-.66.33-.24.12-.52.23-.84.33s-.7.15-1.14.15c-.87,0-1.58-.24-2.11-.73-.54-.49-.85-1.26-.95-2.32h7.16c.15,0,.27-.02.36-.05.09-.03.17-.09.22-.18.05-.09.09-.2.12-.35.02-.15.03-.33.03-.56,0-.82-.13-1.54-.39-2.18-.26-.64-.62-1.18-1.09-1.61ZM181.46,35.37c.13-.75.41-1.33.84-1.75.43-.41,1.03-.62,1.79-.62.41,0,.76.06,1.05.19.29.13.54.3.73.52.19.22.33.47.42.76.09.28.13.58.13.9h-4.98Z"/>
      <path class="cls-1" d="M199.76,37.55c-.16-.32-.38-.6-.64-.83-.27-.23-.57-.42-.91-.57-.34-.15-.69-.29-1.05-.41-.36-.12-.71-.22-1.05-.32-.34-.1-.64-.2-.91-.32-.27-.11-.48-.25-.64-.4-.16-.15-.24-.34-.24-.57,0-.33.14-.59.43-.79.29-.2.69-.3,1.2-.3.34,0,.64.04.9.11.26.07.49.15.69.24.2.08.38.16.54.24.16.07.32.11.47.11s.28-.03.36-.08c.09-.05.18-.14.26-.27l.73-1.07c-.45-.42-1.02-.77-1.71-1.03-.69-.26-1.47-.39-2.31-.39-.76,0-1.42.09-2,.28-.58.19-1.06.45-1.44.77-.39.32-.68.69-.87,1.11-.19.42-.29.86-.29,1.33,0,.51.08.94.25,1.3.17.36.38.66.65.9.27.24.57.45.91.61.34.16.69.3,1.05.42.36.12.71.22,1.06.32.35.09.65.2.92.32.27.12.48.25.65.41.17.16.25.36.25.61,0,.15-.03.3-.1.44s-.17.27-.31.38c-.14.11-.32.2-.54.27-.22.07-.49.1-.8.1-.41,0-.75-.05-1.02-.14-.27-.09-.51-.19-.71-.3-.2-.11-.38-.2-.54-.3-.16-.09-.34-.14-.53-.14s-.36.04-.49.11c-.13.07-.23.18-.32.31l-.74,1.13c.23.2.51.38.82.55.32.17.66.32,1.02.44.36.13.74.23,1.15.3.4.07.81.1,1.22.1.79,0,1.5-.09,2.11-.28.61-.19,1.12-.45,1.53-.79s.72-.74.93-1.2c.21-.46.32-.97.32-1.52,0-.46-.08-.85-.24-1.18Z"/>
    </g>
  </g>
</svg>